<svg xmlns="http://www.w3.org/2000/svg" viewBox="0 0 100 100">
  <!-- Background circle -->
  <circle cx="50" cy="50" r="45" fill="#1e40af" stroke="#3b82f6" stroke-width="2"/>
  
  <!-- Los Angeles - Palm tree silhouette -->
  <g transform="translate(25, 35)">
    <!-- Palm tree trunk -->
    <rect x="8" y="25" width="4" height="20" fill="#8b5a2b"/>
    <!-- Palm leaves -->
    <path d="M10 25 Q5 15 0 10 Q5 5 10 0 Q15 5 20 10 Q15 15 10 25" fill="#22c55e"/>
    <path d="M10 20 Q5 10 0 5 Q5 0 10 -5 Q15 0 20 5 Q15 10 10 20" fill="#16a34a"/>
    <path d="M10 15 Q5 5 0 0 Q5 -5 10 -10 Q15 -5 20 0 Q15 5 10 15" fill="#15803d"/>
  </g>
  
  <!-- New York - Empire State Building silhouette -->
  <g transform="translate(55, 30)">
    <!-- Building base -->
    <rect x="0" y="35" width="12" height="15" fill="#6b7280"/>
    <!-- Building tower -->
    <rect x="2" y="15" width="8" height="20" fill="#4b5563"/>
    <!-- Building top -->
    <rect x="3" y="5" width="6" height="10" fill="#374151"/>
    <!-- Antenna -->
    <rect x="4.5" y="0" width="3" height="5" fill="#1f2937"/>
    <!-- Windows -->
    <rect x="3" y="18" width="2" height="2" fill="#fbbf24"/>
    <rect x="7" y="18" width="2" height="2" fill="#fbbf24"/>
    <rect x="3" y="22" width="2" height="2" fill="#fbbf24"/>
    <rect x="7" y="22" width="2" height="2" fill="#fbbf24"/>
    <rect x="3" y="26" width="2" height="2" fill="#fbbf24"/>
    <rect x="7" y="26" width="2" height="2" fill="#fbbf24"/>
    <rect x="4" y="8" width="2" height="2" fill="#fbbf24"/>
    <rect x="6" y="8" width="2" height="2" fill="#fbbf24"/>
  </g>
  
  <!-- Bridge connecting LA and NY -->
  <path d="M45 50 Q50 45 55 50" stroke="#f59e0b" stroke-width="1.5" fill="none" stroke-dasharray="2,2"/>
</svg>
